<mxfile host="app.diagrams.net" agent="Mozilla/5.0 (Macintosh; Intel Mac OS X 10_15_7) AppleWebKit/537.36 (KHTML, like Gecko) Chrome/129.0.0.0 Safari/537.36" version="24.8.4">
  <diagram name="Страница — 1" id="nAuM4xRmQ5lAxGnV_1PG">
    <mxGraphModel grid="1" page="1" gridSize="10" guides="1" tooltips="1" connect="1" arrows="1" fold="1" pageScale="1" pageWidth="827" pageHeight="1169" math="0" shadow="0">
      <root>
        <mxCell id="0" />
        <mxCell id="1" parent="0" />
        <mxCell id="BzYUrzINwYdcPlOy5pIY-5" style="edgeStyle=orthogonalEdgeStyle;rounded=0;orthogonalLoop=1;jettySize=auto;html=1;startArrow=classic;startFill=1;" edge="1" parent="1" source="h5EbCJl5mtBPo54g1Df6-61" target="BzYUrzINwYdcPlOy5pIY-1">
          <mxGeometry relative="1" as="geometry" />
        </mxCell>
        <mxCell id="h5EbCJl5mtBPo54g1Df6-61" value="" style="rounded=1;whiteSpace=wrap;html=1;strokeWidth=1;" vertex="1" parent="1">
          <mxGeometry x="80" y="-1050" width="130" height="210" as="geometry" />
        </mxCell>
        <mxCell id="BzYUrzINwYdcPlOy5pIY-1" value="" style="rounded=1;whiteSpace=wrap;html=1;strokeWidth=1;" vertex="1" parent="1">
          <mxGeometry x="340" y="-1050" width="156" height="210" as="geometry" />
        </mxCell>
        <mxCell id="BzYUrzINwYdcPlOy5pIY-2" value="" style="ellipse;whiteSpace=wrap;html=1;aspect=fixed;" vertex="1" parent="1">
          <mxGeometry x="135" y="-870" width="20" height="20" as="geometry" />
        </mxCell>
        <mxCell id="BzYUrzINwYdcPlOy5pIY-4" value="" style="shape=cylinder3;whiteSpace=wrap;html=1;boundedLbl=1;backgroundOutline=1;size=15;" vertex="1" parent="1">
          <mxGeometry x="640" y="-1025" width="120" height="160" as="geometry" />
        </mxCell>
        <mxCell id="BzYUrzINwYdcPlOy5pIY-6" style="edgeStyle=orthogonalEdgeStyle;rounded=0;orthogonalLoop=1;jettySize=auto;html=1;entryX=0;entryY=0.5;entryDx=0;entryDy=0;entryPerimeter=0;startArrow=classic;startFill=1;" edge="1" parent="1" source="BzYUrzINwYdcPlOy5pIY-1" target="BzYUrzINwYdcPlOy5pIY-4">
          <mxGeometry relative="1" as="geometry" />
        </mxCell>
        <mxCell id="BzYUrzINwYdcPlOy5pIY-7" value="A" style="rounded=0;whiteSpace=wrap;html=1;strokeColor=none;fillColor=none;" vertex="1" parent="1">
          <mxGeometry x="134.25" y="-1100" width="40" height="20" as="geometry" />
        </mxCell>
        <mxCell id="BzYUrzINwYdcPlOy5pIY-8" value="B" style="rounded=0;whiteSpace=wrap;html=1;strokeColor=none;fillColor=none;" vertex="1" parent="1">
          <mxGeometry x="398" y="-1100" width="40" height="20" as="geometry" />
        </mxCell>
        <mxCell id="BzYUrzINwYdcPlOy5pIY-9" value="C" style="rounded=0;whiteSpace=wrap;html=1;strokeColor=none;fillColor=none;" vertex="1" parent="1">
          <mxGeometry x="680" y="-1100" width="40" height="20" as="geometry" />
        </mxCell>
        <mxCell id="BzYUrzINwYdcPlOy5pIY-10" value="PG" style="rounded=0;whiteSpace=wrap;html=1;strokeColor=none;fillColor=none;" vertex="1" parent="1">
          <mxGeometry x="680" y="-955" width="40" height="20" as="geometry" />
        </mxCell>
        <mxCell id="BzYUrzINwYdcPlOy5pIY-11" value="1" style="rounded=0;whiteSpace=wrap;html=1;strokeColor=none;fillColor=default;" vertex="1" parent="1">
          <mxGeometry x="260" y="-955" width="40" height="20" as="geometry" />
        </mxCell>
        <mxCell id="BzYUrzINwYdcPlOy5pIY-12" value="2" style="rounded=0;whiteSpace=wrap;html=1;strokeColor=none;fillColor=default;" vertex="1" parent="1">
          <mxGeometry x="552" y="-954" width="40" height="20" as="geometry" />
        </mxCell>
        <mxCell id="BzYUrzINwYdcPlOy5pIY-15" value="A - клиент (фронтенд / мобильное приложение)&lt;div&gt;В - сервер (бэкенд)&lt;/div&gt;&lt;div&gt;С - база данных (PG) реляционная&lt;/div&gt;&lt;div&gt;1 - протокол взаимодействия https&lt;br&gt;&lt;/div&gt;&lt;div&gt;2 - протокол взаимодействия TCP/IP&lt;/div&gt;" style="rounded=0;whiteSpace=wrap;html=1;strokeColor=none;fillColor=none;align=left;" vertex="1" parent="1">
          <mxGeometry x="80" y="-820" width="305.75" height="70" as="geometry" />
        </mxCell>
        <mxCell id="BzYUrzINwYdcPlOy5pIY-16" value="&lt;div&gt;&lt;font style=&quot;font-size: 10px;&quot;&gt;Обработка запроса клиентов, валидация данных запроса, работа с БД (чтение / запись данных)&amp;nbsp;&lt;/font&gt;&lt;/div&gt;" style="rounded=0;whiteSpace=wrap;html=1;strokeColor=none;fillColor=none;align=left;" vertex="1" parent="1">
          <mxGeometry x="354" y="-1011" width="130" height="130" as="geometry" />
        </mxCell>
        <mxCell id="BzYUrzINwYdcPlOy5pIY-17" value="&lt;div&gt;&lt;font style=&quot;font-size: 10px;&quot;&gt;Отображение раздела активности:&lt;/font&gt;&lt;/div&gt;&lt;div&gt;&lt;font style=&quot;font-size: 10px;&quot;&gt;- поиск активности&lt;/font&gt;&lt;/div&gt;&lt;div&gt;&lt;font style=&quot;font-size: 10px;&quot;&gt;- создать активность&lt;/font&gt;&lt;/div&gt;&lt;div&gt;&lt;font style=&quot;font-size: 10px;&quot;&gt;- мои активности (список)&lt;/font&gt;&lt;/div&gt;" style="rounded=0;whiteSpace=wrap;html=1;strokeColor=none;fillColor=none;align=left;" vertex="1" parent="1">
          <mxGeometry x="90" y="-1030" width="110" height="150" as="geometry" />
        </mxCell>
      </root>
    </mxGraphModel>
  </diagram>
</mxfile>
